#N canvas 209 50 985 627 10;
#X obj 22 56 midi_bpm2ms;
#N canvas 288 125 555 298 4x4Seq 0;
#X obj 27 38 inlet;
#X obj 27 114 outlet;
#X obj 27 88 select 0;
#X obj 27 63 mod 4;
#X connect 0 0 3 0;
#X connect 2 0 1 0;
#X connect 3 0 2 0;
#X restore 49 193 pd 4x4Seq;
#X obj 22 106 metro;
#X obj 112 56 tgl 50 0 empty empty empty 17 7 0 10 -262144 -1 -1 1
1;
#X obj 202 11 cnv 30 1 1 empty empty ancient_machine 20 12 0 24 -262144
-1 0;
#X obj 22 18 r START-BANG;
#X obj 22 171 s MAIN;
#X obj 192 106 s NEW-SEED;
#X obj 49 215 bng 15 100 10 0 empty empty empty 17 7 0 10 -262144 -1
-1;
#X obj 192 56 bng 50 250 50 0 empty empty empty 17 7 0 10 -262144 -1
-1;
#N canvas 532 310 450 300 startup 0;
#X obj 45 190 r START-BANG;
#X msg 174 113 \; pd dsp \$1;
#X obj 174 94 tgl 15 0 empty empty empty 17 7 0 10 -262144 -1 -1 1
1;
#X obj 14 144 s START-BANG;
#X text 92 6 main load bang to send to all sub patches;
#X text 131 191 enable midi;
#X text 198 89 enable DSP;
#X obj 105 167 s INIT-BANG;
#X obj 14 77 t b b;
#X msg 45 217 \; pd midi-dialog 1 0 0 0 0 0 0 0 0 3 0 0 0 0 0 0 0 0
2 4;
#X text 259 152 [r pd];
#X text 259 165 |;
#X text 259 176 [print];
#X text 316 134 create this then;
#X text 317 144 MIDI Settings;
#X text 316 153 look in console;
#X text 316 163 for midi-dialog;
#X obj 14 7 r activate;
#X obj 14 30 f;
#X obj 49 30 + 1;
#X obj 14 53 sel 0;
#X obj 105 144 del 1500;
#X obj 14 114 del 250;
#X connect 0 0 9 0;
#X connect 2 0 1 0;
#X connect 8 0 22 0;
#X connect 8 1 2 0;
#X connect 17 0 18 0;
#X connect 18 0 19 0;
#X connect 18 0 20 0;
#X connect 19 0 18 1;
#X connect 20 0 8 0;
#X connect 21 0 7 0;
#X connect 22 0 3 0;
#X connect 22 0 21 0;
#X restore 112 18 pd startup;
#N canvas 312 160 449 300 MAINclock 0;
#X obj 105 133 f;
#X obj 155 133 + 1;
#X obj 155 154 mod 16;
#X obj 143 94 midiClockReceive;
#X obj 105 71 inlet;
#X obj 105 179 outlet;
#X obj 252 179 outlet;
#X connect 0 0 1 0;
#X connect 0 0 5 0;
#X connect 1 0 2 0;
#X connect 2 0 0 1;
#X connect 3 0 0 0;
#X connect 3 1 0 0;
#X connect 3 1 6 0;
#X connect 4 0 0 0;
#X restore 22 127 pd MAINclock;
#X obj 91 148 s ZERO;
#X obj 22 477 pdFeeder;
#X obj 282 56 scaleArray;
#X msg 22 39 117;
#X obj 22 237 _roots;
#X text 183 165 select MEDIA on the top bar \, then MIDI Settings to
select input and output devices of your choice;
#X msg 401 50 \; scaleArray 0 0 2 3 5 7 8 10;
#X text 405 33 minor C;
#X msg 629 49 \; scaleArray 0 3 4 4 8 9 11 16;
#X text 634 30 ryuku E;
#X text 403 84 phrygian F;
#X msg 629 102 \; scaleArray 0 1 4 6 6 9 11 13;
#X text 632 84 min pentatonic F#;
#X text 123 105 play;
#X msg 630 156 \; scaleArray 0 0 2 4 5 7 9 11;
#X text 633 138 major C;
#X msg 401 101 \; scaleArray 0 0 1 3 5 6 8 10;
#X obj 112 477 neuralCore;
#X text 400 134 always keep first 0;
#X obj 22 149 t f f;
#X connect 0 0 2 1;
#X connect 1 0 8 0;
#X connect 2 0 11 0;
#X connect 3 0 2 0;
#X connect 5 0 15 0;
#X connect 9 0 7 0;
#X connect 11 0 31 0;
#X connect 11 1 12 0;
#X connect 15 0 0 0;
#X connect 31 0 6 0;
#X connect 31 1 1 0;
