#N canvas 181 115 1028 530 10;
#X obj 100 200 tgl 50 0 empty empty empty 17 7 0 10 -262144 -1 -1 0
1;
#X obj 185 164 keyup;
#X obj 185 184 select 122;
#X obj 74 183 r START-BANG;
#X obj 303 53 r MAIN;
#X obj 498 53 r ZERO;
#N canvas 534 271 450 300 quiet 0;
#X obj 88 33 inlet;
#X obj 209 60 inlet;
#X obj 88 56 select 0;
#X obj 88 77 f;
#X obj 119 77 + 1;
#X obj 88 163 select 0 2 4 6;
#X obj 119 98 mod 8;
#X obj 88 138 spigot;
#X obj 140 121 inlet;
#X obj 88 188 outlet;
#X obj 111 214 outlet;
#X obj 135 238 outlet;
#X obj 159 262 outlet;
#X connect 0 0 2 0;
#X connect 1 0 3 0;
#X connect 2 0 3 0;
#X connect 3 0 4 0;
#X connect 3 0 7 0;
#X connect 4 0 6 0;
#X connect 5 0 9 0;
#X connect 5 1 10 0;
#X connect 5 2 11 0;
#X connect 5 3 12 0;
#X connect 6 0 3 1;
#X connect 7 0 5 0;
#X connect 8 0 7 1;
#X restore 303 75 pd quiet rhythm of the mother sea;
#X obj 370 117 markovChain;
#X text 153 200 Z to enable or disable randomization;
#X text 433 202 euclid toggle;
#X text 432 224 [percussion] [melody];
#X text 619 224 transmit toggle;
#X obj 100 250 branch 1 16;
#X obj 210 250 branch 2 16;
#X obj 870 345 branch 16 16;
#X obj 100 345 branch 9 16;
#X obj 210 345 branch 10 16;
#X obj 320 345 branch 11 16;
#X obj 430 345 branch 12 16;
#X obj 540 345 branch 13 16;
#X obj 650 345 branch 14 16;
#X obj 760 345 branch 15 16;
#X obj 320 250 branch 3 16;
#X obj 540 250 branch 5 16;
#X obj 650 250 branch 6 16;
#X obj 760 250 branch 7 16;
#X obj 870 250 branch 8 16;
#X obj 430 250 branch 4 16;
#X text 618 202 length 8 \, 16 \, 32 \, 64;
#X text 185 222 BRANCH SEQUENCERS;
#X connect 0 0 6 1;
#X connect 1 0 2 0;
#X connect 2 0 0 0;
#X connect 3 0 0 0;
#X connect 4 0 6 0;
#X connect 5 0 6 2;
#X connect 6 0 7 0;
#X connect 6 1 7 0;
#X connect 6 2 7 0;
#X connect 6 3 7 0;
#X connect 7 0 15 0;
#X connect 7 0 17 0;
#X connect 7 0 19 0;
#X connect 7 0 21 0;
#X connect 7 0 22 0;
#X connect 7 0 23 0;
#X connect 7 0 25 0;
#X connect 7 0 12 0;
#X connect 7 1 13 0;
#X connect 7 1 14 0;
#X connect 7 1 16 0;
#X connect 7 1 18 0;
#X connect 7 1 20 0;
#X connect 7 1 24 0;
#X connect 7 1 26 0;
#X connect 7 1 27 0;
#X connect 7 3 12 0;
#X connect 7 3 15 0;
#X connect 7 3 13 0;
#X connect 7 3 16 0;
#X connect 7 3 22 0;
#X connect 7 3 17 0;
#X connect 7 3 27 0;
#X connect 7 3 18 0;
#X connect 7 3 23 0;
#X connect 7 3 19 0;
#X connect 7 3 24 0;
#X connect 7 3 20 0;
#X connect 7 3 25 0;
#X connect 7 3 21 0;
#X connect 7 3 26 0;
#X connect 7 3 14 0;
#X coords 0 -1 1 1 870 230 2 100 200;
