#N canvas 42 123 1028 530 10;
#X obj 100 155 cnv 15 100 30 empty \$0-cnvCol empty 20 12 0 14 -233017
-66577 0;
#X obj 194 332 s \$0-cnvCol;
#X obj 100 155 hradio 30 1 0 2 empty empty empty 0 -8 0 10 -262144
-1 -1 0;
#X obj 944 777 t f f;
#X obj 971 800 == 1;
#X obj 923 800 == 0;
#X obj 923 822 t f f;
#X obj 971 822 t f f;
#X obj 987 866 spigot;
#X obj 890 866 spigot;
#X obj 170 155 tgl 30 0 empty \$0-cnvCol empty 17 7 0 10 -233017 -1
-1 0 1;
#X obj 168 264 spigot;
#X obj 170 215 == 0;
#X obj 260 208 == 1;
#X obj 260 252 spigot;
#X obj 170 191 t f f;
#X obj 890 888 spigot;
#X obj 987 888 spigot;
#X obj 170 238 t b f;
#X obj 144 -8 r START-BANG;
#X obj 987 978 noteout \$1;
#X text 12 55 \$1 = midi Chnl;
#X text 12 70 \$2 = length;
#X msg 194 290 color 10;
#X msg 260 311 color 6;
#X obj 237 11 r INIT-BANG;
#X text 1261 292 randomize;
#X text 203 159 on/off;
#X text 98 185 mode set;
#X msg 175 67 0;
#X obj 987 345 r MAIN;
#X obj 1262 310 inlet;
#X obj 987 934 makenote 75 200;
#X obj 1171 795 osc~;
#X obj 1170 891 snapshot~;
#X obj 1171 817 +~ 1;
#X obj 1171 839 *~ 40;
#X text 1203 791 velocityMod;
#X obj 1171 861 +~ 20;
#X msg 1006 777 64;
#X obj 987 601 t b b b;
#X obj 260 230 t b f f f;
#X obj 133 125 hsl 65 30 1 4 0 0 \$0-length empty length 0 15 0 10
-262144 -1 -99865 2133 1;
#X obj 1325 381 int;
#X obj 1325 406 * 8;
#X obj 100 125 tgl 30 0 \$0-euclidTog empty euc 2 15 0 10 -1 -262144
-204786 0 1;
#X obj 987 463 spigot;
#X obj 1020 434 == 0;
#X obj 1110 427 == 1;
#X obj 1077 463 spigot;
#X obj 1020 410 t f f;
#X obj 987 485 t b;
#X obj 1340 358 r \$0-length;
#X obj 1020 376 r \$0-euclidTog;
#X msg 211 67 2;
#X obj 1325 428 t f f f b;
#X obj 144 44 t b b b b b;
#X obj 987 623 seqFreq;
#X obj 987 516 seqGate;
#X obj 1077 402 euclidGen;
#X obj 237 33 t b b b;
#X obj 1262 332 markovChain;
#X obj 1171 760 neuron 33;
#X connect 2 0 3 0;
#X connect 3 0 5 0;
#X connect 3 1 4 0;
#X connect 4 0 7 0;
#X connect 5 0 6 0;
#X connect 6 0 9 1;
#X connect 7 0 8 1;
#X connect 8 0 17 0;
#X connect 9 0 16 0;
#X connect 10 0 15 0;
#X connect 11 0 23 0;
#X connect 12 0 18 0;
#X connect 13 0 41 0;
#X connect 14 0 24 0;
#X connect 15 0 12 0;
#X connect 15 1 13 0;
#X connect 16 0 32 0;
#X connect 17 0 32 0;
#X connect 18 0 11 0;
#X connect 18 1 11 1;
#X connect 19 0 56 0;
#X connect 23 0 1 0;
#X connect 24 0 1 0;
#X connect 25 0 60 0;
#X connect 29 0 2 0;
#X connect 30 0 46 0;
#X connect 30 0 59 0;
#X connect 31 0 61 0;
#X connect 32 0 20 0;
#X connect 32 1 20 1;
#X connect 33 0 35 0;
#X connect 34 0 32 1;
#X connect 35 0 36 0;
#X connect 36 0 38 0;
#X connect 38 0 34 0;
#X connect 39 0 9 0;
#X connect 40 0 57 0;
#X connect 40 1 39 0;
#X connect 40 2 34 0;
#X connect 41 0 14 0;
#X connect 41 1 14 1;
#X connect 41 2 16 1;
#X connect 41 3 17 1;
#X connect 43 0 44 0;
#X connect 44 0 55 0;
#X connect 46 0 51 0;
#X connect 47 0 46 1;
#X connect 48 0 49 1;
#X connect 49 0 58 0;
#X connect 50 0 47 0;
#X connect 50 1 48 0;
#X connect 51 0 58 0;
#X connect 52 0 43 1;
#X connect 53 0 50 0;
#X connect 54 0 42 0;
#X connect 55 0 59 2;
#X connect 55 1 58 2;
#X connect 55 2 57 3;
#X connect 55 3 62 0;
#X connect 56 1 45 0;
#X connect 56 2 29 0;
#X connect 56 3 10 0;
#X connect 56 4 54 0;
#X connect 57 0 8 0;
#X connect 58 0 40 0;
#X connect 59 0 49 0;
#X connect 60 0 43 0;
#X connect 60 1 45 0;
#X connect 60 2 10 0;
#X connect 61 0 58 1;
#X connect 61 0 59 1;
#X connect 61 0 62 0;
#X connect 61 1 57 1;
#X connect 61 1 59 1;
#X connect 61 1 62 0;
#X connect 61 2 57 2;
#X connect 61 2 58 1;
#X connect 61 2 62 0;
#X connect 61 3 43 0;
#X connect 62 0 33 0;
#X coords 0 -1 1 1 100 85 1 100 100;
