#N canvas 330 55 419 300 10;
#X obj 80 32 midirealtimein;
#X obj 255 139 route 252;
#X obj 218 49 route 250;
#X obj 265 87 route 251;
#X obj 80 80 route 248;
#X obj 80 131 f;
#X obj 120 131 + 1;
#X obj 80 173 select 0;
#X obj 80 102 spigot;
#X text 291 47 play;
#X text 329 139 stop;
#X text 340 87 continue;
#X msg 175 174 0;
#X obj 80 195 outlet;
#X obj 175 196 outlet;
#X obj 175 87 tgl 15 0 empty empty empty 17 7 0 10 -262144 -1 -1 0
1;
#X msg 255 161 0;
#X msg 265 109 1;
#X msg 218 70 1;
#X obj 175 151 spigot;
#X obj 120 151 mod 6;
#X connect 0 0 1 0;
#X connect 0 0 2 0;
#X connect 0 0 3 0;
#X connect 0 0 4 0;
#X connect 1 0 16 0;
#X connect 2 0 18 0;
#X connect 3 0 17 0;
#X connect 4 0 8 0;
#X connect 5 0 6 0;
#X connect 5 0 7 0;
#X connect 6 0 20 0;
#X connect 7 0 13 0;
#X connect 8 0 5 0;
#X connect 12 0 14 0;
#X connect 12 0 5 0;
#X connect 15 0 8 1;
#X connect 15 0 19 1;
#X connect 15 0 19 0;
#X connect 16 0 15 0;
#X connect 17 0 15 0;
#X connect 18 0 15 0;
#X connect 19 0 12 0;
#X connect 20 0 5 1;
